HIERARCHY
ROOT Hips
{
  OFFSET -371.194 74.5009 786.787
  CHANNELS 6 Xposition Yposition Zposition Zrotation Xrotation Yrotation
  JOINT Spine
  {
    OFFSET 0 8.00001 -2.43117e-05
    CHANNELS 6 Xposition Yposition Zposition Zrotation Xrotation Yrotation
    JOINT Spine1
    {
      OFFSET 5.77409e-05 7.9999 0.0408503
      CHANNELS 6 Xposition Yposition Zposition Zrotation Xrotation Yrotation
      JOINT Spine2
      {
        OFFSET -1.17491e-05 8 -6.66971e-05
        CHANNELS 6 Xposition Yposition Zposition Zrotation Xrotation Yrotation
        JOINT Spine3
        {
          OFFSET 0 8 0
          CHANNELS 6 Xposition Yposition Zposition Zrotation Xrotation Yrotation
          JOINT Neck
          {
            OFFSET 1.39589e-05 17 3.80516e-05
            CHANNELS 6 Xposition Yposition Zposition Zrotation Xrotation Yrotation
            JOINT Head
            {
              OFFSET -1.22014e-05 10.8 0
              CHANNELS 6 Xposition Yposition Zposition Zrotation Xrotation Yrotation
              End Site
              {
                OFFSET 0 20.25 0
              }
            }
          }
          JOINT LeftShoulder
          {
            OFFSET 5.00001 17 1.63626e-05
            CHANNELS 6 Xposition Yposition Zposition Zrotation Xrotation Yrotation
            JOINT LeftShoulder2
            {
              OFFSET 6.45 0 0
              CHANNELS 6 Xposition Yposition Zposition Zrotation Xrotation Yrotation
              JOINT LeftArm
              {
                OFFSET 6.45 0 3.12182e-05
                CHANNELS 6 Xposition Yposition Zposition Zrotation Xrotation Yrotation
                JOINT LeftForeArm
                {
                  OFFSET -4.4327e-05 -32.4 -2.06622
                  CHANNELS 6 Xposition Yposition Zposition Zrotation Xrotation Yrotation
                  JOINT LeftHand
                  {
                    OFFSET 6.09603e-05 -25.653 2.00005
                    CHANNELS 6 Xposition Yposition Zposition Zrotation Xrotation Yrotation
                    JOINT LeftHandThumb1
                    {
                      OFFSET -0.500005 -1.49992 2.64991
                      CHANNELS 6 Xposition Yposition Zposition Zrotation Xrotation Yrotation
                      JOINT LeftHandThumb2
                      {
                        OFFSET -2.06063e-05 -3.79999 3.69995
                        CHANNELS 6 Xposition Yposition Zposition Zrotation Xrotation Yrotation
                        JOINT LeftHandThumb3
                        {
                          OFFSET -7.39061e-05 -2.99994 2.70006
                          CHANNELS 6 Xposition Yposition Zposition Zrotation Xrotation Yrotation
                          End Site
                          {
                            OFFSET 0 -2.3 1.79997
                          }
                        }
                      }
                    }
                    JOINT LeftHandIndex
                    {
                      OFFSET -4.37953e-05 -1.90003 1.6
                      CHANNELS 6 Xposition Yposition Zposition Zrotation Xrotation Yrotation
                      JOINT LeftHandIndex1
                      {
                        OFFSET 0 -8.3 1.89995
                        CHANNELS 6 Xposition Yposition Zposition Zrotation Xrotation Yrotation
                        JOINT LeftHandIndex2
                        {
                          OFFSET 0.0259922 -4.49997 -1.20928e-05
                          CHANNELS 6 Xposition Yposition Zposition Zrotation Xrotation Yrotation
                          JOINT LeftHandIndex3
                          {
                            OFFSET 3.41012e-05 -3.39999 -1.39451e-05
                            CHANNELS 6 Xposition Yposition Zposition Zrotation Xrotation Yrotation
                            End Site
                            {
                              OFFSET -5.94818e-05 -2.60006 5.90891e-05
                            }
                          }
                        }
                      }
                    }
                    JOINT LeftHandMiddle
                    {
                      OFFSET -0.250034 -2.19994 0.40006
                      CHANNELS 6 Xposition Yposition Zposition Zrotation Xrotation Yrotation
                      JOINT LeftHandMiddle1
                      {
                        OFFSET -2.0939e-05 -8.30007 1.01781
                        CHANNELS 6 Xposition Yposition Zposition Zrotation Xrotation Yrotation
                        JOINT LeftHandMiddle2
                        {
                          OFFSET 1.43078e-05 -4.64999 -0.00907839
                          CHANNELS 6 Xposition Yposition Zposition Zrotation Xrotation Yrotation
                          JOINT LeftHandMiddle3
                          {
                            OFFSET -4.86387e-05 -3.30003 1.80512e-05
                            CHANNELS 6 Xposition Yposition Zposition Zrotation Xrotation Yrotation
                            End Site
                            {
                              OFFSET 2.22297e-05 -2.69995 0
                            }
                          }
                        }
                      }
                    }
                    JOINT LeftHandRing
                    {
                      OFFSET -0.500051 -2.12139 -0.800017
                      CHANNELS 6 Xposition Yposition Zposition Zrotation Xrotation Yrotation
                      JOINT LeftHandRing1
                      {
                        OFFSET 4.53015e-05 -7.74056 -0.200017
                        CHANNELS 6 Xposition Yposition Zposition Zrotation Xrotation Yrotation
                        JOINT LeftHandRing2
                        {
                          OFFSET -0.0335678 -3.7861 8.96593e-05
                          CHANNELS 6 Xposition Yposition Zposition Zrotation Xrotation Yrotation
                          JOINT LeftHandRing3
                          {
                            OFFSET 0.0041467 -3.39994 4.20949e-05
                            CHANNELS 6 Xposition Yposition Zposition Zrotation Xrotation Yrotation
                            End Site
                            {
                              OFFSET 0 -2.60002 -5.52203e-05
                            }
                          }
                        }
                      }
                    }
                    JOINT LeftHandPinky
                    {
                      OFFSET -0.749974 -1.74997 -1.84998
                      CHANNELS 6 Xposition Yposition Zposition Zrotation Xrotation Yrotation
                      JOINT LeftHandPinky1
                      {
                        OFFSET 3.09379e-05 -7.15006 -1.00005
                        CHANNELS 6 Xposition Yposition Zposition Zrotation Xrotation Yrotation
                        JOINT LeftHandPinky2
                        {
                          OFFSET 0.0402929 -2.99994 -6.47239e-05
                          CHANNELS 6 Xposition Yposition Zposition Zrotation Xrotation Yrotation
                          JOINT LeftHandPinky3
                          {
                            OFFSET -5.24801e-05 -2.35006 7.2244e-05
                            CHANNELS 6 Xposition Yposition Zposition Zrotation Xrotation Yrotation
                            End Site
                            {
                              OFFSET 2.17796e-05 -2.10007 -1.94121e-05
                            }
                          }
                        }
                      }
                    }
                  }
                }
              }
            }
          }
          JOINT RightShoulder
          {
            OFFSET -4.99999 17 0
            CHANNELS 6 Xposition Yposition Zposition Zrotation Xrotation Yrotation
            JOINT RightShoulder2
            {
              OFFSET -6.45 0 0
              CHANNELS 6 Xposition Yposition Zposition Zrotation Xrotation Yrotation
              JOINT RightArm
              {
                OFFSET -6.44999 0 0
                CHANNELS 6 Xposition Yposition Zposition Zrotation Xrotation Yrotation
                JOINT RightForeArm
                {
                  OFFSET 1.25277e-05 -32.4 -1.99999
                  CHANNELS 6 Xposition Yposition Zposition Zrotation Xrotation Yrotation
                  JOINT RightHand
                  {
                    OFFSET 0.0515817 -25.6499 2.00005
                    CHANNELS 6 Xposition Yposition Zposition Zrotation Xrotation Yrotation
                    JOINT RightHandThumb1
                    {
                      OFFSET 0.499992 -1.50003 2.65005
                      CHANNELS 6 Xposition Yposition Zposition Zrotation Xrotation Yrotation
                      JOINT RightHandThumb2
                      {
                        OFFSET 0.0378402 -3.79998 3.70004
                        CHANNELS 6 Xposition Yposition Zposition Zrotation Xrotation Yrotation
                        JOINT RightHandThumb3
                        {
                          OFFSET 0.0253902 -3.00002 2.70001
                          CHANNELS 6 Xposition Yposition Zposition Zrotation Xrotation Yrotation
                          End Site
                          {
                            OFFSET -9.05795e-05 -2.3 1.79999
                          }
                        }
                      }
                    }
                    JOINT RightHandIndex
                    {
                      OFFSET -0.00128117 -1.936 1.60171
                      CHANNELS 6 Xposition Yposition Zposition Zrotation Xrotation Yrotation
                      JOINT RightHandIndex1
                      {
                        OFFSET 2.95532e-05 -8.3 1.90002
                        CHANNELS 6 Xposition Yposition Zposition Zrotation Xrotation Yrotation
                        JOINT RightHandIndex2
                        {
                          OFFSET -1.84005e-05 -4.50002 0.0317858
                          CHANNELS 6 Xposition Yposition Zposition Zrotation Xrotation Yrotation
                          JOINT RightHandIndex3
                          {
                            OFFSET -3.12554e-05 -3.40002 -5.02277e-05
                            CHANNELS 6 Xposition Yposition Zposition Zrotation Xrotation Yrotation
                            End Site
                            {
                              OFFSET -1.1257e-05 -2.59999 7.49363e-05
                            }
                          }
                        }
                      }
                    }
                    JOINT RightHandMiddle
                    {
                      OFFSET 0.250065 -2.20001 0.400016
                      CHANNELS 6 Xposition Yposition Zposition Zrotation Xrotation Yrotation
                      JOINT RightHandMiddle1
                      {
                        OFFSET -1.62351e-05 -8.30003 1.00356
                        CHANNELS 6 Xposition Yposition Zposition Zrotation Xrotation Yrotation
                        JOINT RightHandMiddle2
                        {
                          OFFSET 5.0027e-05 -4.64992 -6.49988e-05
                          CHANNELS 6 Xposition Yposition Zposition Zrotation Xrotation Yrotation
                          JOINT RightHandMiddle3
                          {
                            OFFSET -7.25355e-05 -3.24315 6.49156e-05
                            CHANNELS 6 Xposition Yposition Zposition Zrotation Xrotation Yrotation
                            End Site
                            {
                              OFFSET -3.54144e-05 -2.69996 -7.36921e-05
                            }
                          }
                        }
                      }
                    }
                    JOINT RightHandRing
                    {
                      OFFSET 0.499922 -2.14996 -0.800006
                      CHANNELS 6 Xposition Yposition Zposition Zrotation Xrotation Yrotation
                      JOINT RightHandRing1
                      {
                        OFFSET 0 -7.74996 -0.19992
                        CHANNELS 6 Xposition Yposition Zposition Zrotation Xrotation Yrotation
                        JOINT RightHandRing2
                        {
                          OFFSET 3.43492e-05 -3.82781 1.26768e-05
                          CHANNELS 6 Xposition Yposition Zposition Zrotation Xrotation Yrotation
                          JOINT RightHandRing3
                          {
                            OFFSET -4.68521e-05 -3.40005 -6.09063e-05
                            CHANNELS 6 Xposition Yposition Zposition Zrotation Xrotation Yrotation
                            End Site
                            {
                              OFFSET 6.33427e-05 -2.60003 0.000107297
                            }
                          }
                        }
                      }
                    }
                    JOINT RightHandPinky
                    {
                      OFFSET 0.749984 -1.74995 -1.8378
                      CHANNELS 6 Xposition Yposition Zposition Zrotation Xrotation Yrotation
                      JOINT RightHandPinky1
                      {
                        OFFSET 6.12114e-05 -7.15008 -0.999969
                        CHANNELS 6 Xposition Yposition Zposition Zrotation Xrotation Yrotation
                        JOINT RightHandPinky2
                        {
                          OFFSET 3.82582e-05 -3.00001 8.47407e-05
                          CHANNELS 6 Xposition Yposition Zposition Zrotation Xrotation Yrotation
                          JOINT RightHandPinky3
                          {
                            OFFSET -1.69911e-05 -2.34997 -7.15776e-05
                            CHANNELS 6 Xposition Yposition Zposition Zrotation Xrotation Yrotation
                            End Site
                            {
                              OFFSET 3.40319e-05 -2.10449 0.0142955
                            }
                          }
                        }
                      }
                    }
                  }
                }
              }
            }
          }
        }
      }
    }
  }
  JOINT LeftUpLeg
  {
    OFFSET 8.00002 0 -2.12235e-05
    CHANNELS 6 Xposition Yposition Zposition Zrotation Xrotation Yrotation
    JOINT LeftLeg
    {
      OFFSET -5.58453e-05 -45.0001 -0.999992
      CHANNELS 6 Xposition Yposition Zposition Zrotation Xrotation Yrotation
      JOINT LeftFoot
      {
        OFFSET -6.71702e-05 -41 -2.00002
        CHANNELS 6 Xposition Yposition Zposition Zrotation Xrotation Yrotation
        JOINT LeftToeBase
        {
          OFFSET 0 -7.5 12.4999
          CHANNELS 6 Xposition Yposition Zposition Zrotation Xrotation Yrotation
          JOINT LeftFootToe
          {
            OFFSET 0 0 4
            CHANNELS 6 Xposition Yposition Zposition Zrotation Xrotation Yrotation
            End Site
            {
              OFFSET 0 0 0
            }
          }
        }
      }
    }
  }
  JOINT RightUpLeg
  {
    OFFSET -8.00002 0 2.12235e-05
    CHANNELS 6 Xposition Yposition Zposition Zrotation Xrotation Yrotation
    JOINT RightLeg
    {
      OFFSET 0 -45 -1.00005
      CHANNELS 6 Xposition Yposition Zposition Zrotation Xrotation Yrotation
      JOINT RightFoot
      {
        OFFSET -5.93622e-05 -41 -1.99992
        CHANNELS 6 Xposition Yposition Zposition Zrotation Xrotation Yrotation
        JOINT RightToeBase
        {
          OFFSET 2.82248e-05 -7.5 12.5
          CHANNELS 6 Xposition Yposition Zposition Zrotation Xrotation Yrotation
          JOINT RightFootToe
          {
            OFFSET 0 0 4
            CHANNELS 6 Xposition Yposition Zposition Zrotation Xrotation Yrotation
            End Site
            {
              OFFSET 0 0 0
            }
          }
        }
      }
    }
  }
}
MOTION
Frames:	3
Frame Time:	0.0111111
-371.194 74.5009 786.787 -6.33002 8.65204 -171.295 -5.68434e-14 8 -1.13687e-13 5.35007 10.419 -12.6575 0 8 -1.13687e-13 1.96045 7.04748 -3.32501 -1.13687e-13 8 0 0.928799 3.54748 -1.63087 0 8 0 0.924435 3.53253 -1.62699 -2.84217e-14 17 1.13687e-13 5.32746 1.06951 -10.0312 0 10.8 0 12.6533 0.990789 -23.6587 5 17 0 3.83997 0.0277694 -5.78003 6.45 0 0 -1.01839 -0.311291 -1.0637 6.45 2.84217e-14 -1.13687e-13 70.5609 -37.4112 19.8687 5.68434e-14 -32.4 -2 -11.7626 -39.1096 0.892245 0 -25.65 2 -18.6268 14.8929 -24.3828 -0.5 -1.5 2.65 -4.07243 -21.2305 11.6487 5.68434e-14 -3.8 3.7 -0.036654 12.0512 0.0177096 0 -3 2.7 -0.21549 27.7336 -0.147296 0 -1.9 1.6 -8.79558e-07 8.18431e-06 1.74746e-05 -5.68434e-14 -8.3 1.9 -44.8355 24.8037 11.451 0 -4.5 1.13687e-13 -7.29905 -0.00841122 -0.00109467 0 -3.4 -1.13687e-13 -6.2647 -0.00625074 -0.00410617 -0.25 -2.2 0.4 -8.79558e-07 8.18431e-06 1.74746e-05 5.68434e-14 -8.3 1 -73.9532 17.8317 18.6592 -5.68434e-14 -4.65 0 -1.97169 3.98504e-05 -4.53083e-05 -5.68434e-14 -3.3 0 -2.48107e-05 1.45071e-05 -6.30009e-05 -0.5 -2.15 -0.8 -8.79558e-07 8.18431e-06 1.74746e-05 -5.68434e-14 -7.75 -0.2 -72.8427 15.6656 17.7882 1.13687e-13 -3.8 0 -85.4286 -0.0144424 -0.00080861 0 -3.4 0 -73.4287 0.00553127 0.0108156 -0.75 -1.75 -1.85 -8.79558e-07 8.18431e-06 1.74746e-05 -1.13687e-13 -7.15 -1 -87.9992 3.68136 17.3891 0 -3 0 -21.5504 0.000131311 -0.0845928 0 -2.35 0 -16.729 0.0159163 -0.052995 -5 17 0 16.6493 -3.35099 -5.29804 -6.45 0 0 -1.96686 0.953738 -1.35372 -6.45 0 0 -55.7541 0.92222 -35.7761 5.68434e-14 -32.4 -2 50.6226 -77.9936 73.7269 0 -25.65 2 -10.4932 -6.56141 35.643 0.5 -1.5 2.65 40.3072 44.5594 -114.575 0 -3.8 3.7 0.314395 29.6127 0.0821487 0 -3 2.7 -0.0758601 31.2909 0.35288 2.84217e-14 -1.9 1.6 -6.06224e-05 2.25684e-05 -3.00699e-05 -2.84217e-14 -8.3 1.9 0.43854 -5.61463 0.0374704 1.42109e-14 -4.5 5.68434e-14 54.007 -0.0101619 0.0248846 0 -3.4 0 36.1394 0.00459336 0.0201026 0.25 -2.2 0.4 -6.06224e-05 2.25684e-05 -3.00699e-05 -2.84217e-14 -8.3 1 0.544872 2.81835 -0.0512094 2.84217e-14 -4.65 0 79.7526 -0.00208189 -0.00625031 0 -3.3 0 63.1698 -0.00283598 0.000893433 0.5 -2.15 -0.8 -6.06224e-05 2.25684e-05 -3.00699e-05 1.42109e-14 -7.75 -0.2 0.314495 2.98519 -0.0461096 2.84217e-14 -3.8 -5.68434e-14 53.2218 -0.00416212 -0.00275301 -1.13687e-13 -3.4 5.68434e-14 36.7556 0.000847076 -0.00679864 0.75 -1.75 -1.85 -6.06224e-05 2.25684e-05 -3.00699e-05 0 -7.15 -1 0.00242032 0.340744 -0.0170479 0 -3 -5.68434e-14 69.3838 -0.0208177 -0.0537351 -1.13687e-13 -2.35 0 51.8031 -0.0656497 -0.0144549 8 0 -2.27374e-13 19.2415 -41.5453 20.4382 0 -45 -1 -0.425958 35.5478 -5.95896 0 -41 -2 -8.7371 14.6677 17.6479 0 -7.5 12.5 4.39531e-06 8.74789e-06 -9.94659e-06 0 0 4 -1.89441 -5.45416 0.429946 -8 -2.84217e-14 0 0.748306 -53.4017 -12.2514 0 -45 -1 -18.1861 75.8274 28.7553 0 -41 -2 -9.7256 20.9879 -9.38015 0 -7.5 12.5 -7.34716e-07 -32.8371 -4.08084e-05 -5.68434e-14 0 4 -12.2001 26.9399 53.2077 
-371.173 74.5003 786.762 -6.38912 8.67283 -171.342 0 8 0 5.38055 10.4352 -12.6467 -5.68434e-14 8 0 1.95798 7.04788 -3.26838 0 8 0 0.927056 3.54753 -1.6027 -5.68434e-14 8 0 0.92381 3.53359 -1.60196 -2.84217e-14 17 1.13687e-13 5.31911 1.01879 -9.56611 -5.68434e-14 10.8 -1.13687e-13 12.6165 0.945804 -22.5509 5 17 0 3.81029 0.00628839 -5.54648 6.45 0 -1.13687e-13 -1.04587 -0.310478 -1.07366 6.45 0 0 70.4842 -37.3716 19.6874 -2.84217e-14 -32.4 -2 -11.5742 -40.0632 0.468917 -2.84217e-14 -25.65 2 -17.5459 14.2159 -25.1876 -0.5 -1.5 2.65 -4.78465 -20.7887 10.8675 0 -3.8 3.7 -0.0285286 12.2552 0.0175244 0 -3 2.7 -0.216077 25.1707 -0.131202 -5.68434e-14 -1.9 1.6 -8.79558e-07 8.18431e-06 1.74746e-05 0 -8.3 1.9 -43.5166 24.4061 10.8975 0 -4.5 0 -6.41332 -0.00407598 -0.00515483 0 -3.4 -1.13687e-13 -5.5759 -0.00257121 -0.00655364 -0.25 -2.2 0.4 -8.79558e-07 8.18431e-06 1.74746e-05 0 -8.3 1 -73.3057 18.1226 18.6385 0 -4.65 0 -1.97169 3.98504e-05 -4.53083e-05 0 -3.3 0 -2.48107e-05 1.45071e-05 -6.30009e-05 -0.5 -2.15 -0.8 -8.79558e-07 8.18431e-06 1.74746e-05 0 -7.75 -0.2 -72.7327 15.719 17.7989 0 -3.8 0 -84.586 -0.0144424 -0.0112748 2.84217e-14 -3.4 0 -71.8844 0.0229889 0.00617447 -0.75 -1.75 -1.85 -8.79558e-07 8.18431e-06 1.74746e-05 0 -7.15 -1 -87.9254 3.71459 17.3506 -5.68434e-14 -3 0 -18.996 -0.0134488 -0.084836 -5.68434e-14 -2.35 0 -15.0133 0.00532932 -0.0572071 -5 17 1.13687e-13 16.5742 -3.32156 -5.16506 -6.45 -2.84217e-14 1.13687e-13 -1.96668 0.949306 -1.35161 -6.45 0 -2.27374e-13 -55.8902 0.938659 -35.8498 -5.68434e-14 -32.4 -2 43.6466 -77.8843 66.6212 1.42109e-14 -25.65 2 -9.86018 -7.37028 34.9067 0.5 -1.5 2.65 39.7108 43.8565 -114.25 1.13687e-13 -3.8 3.7 0.314475 30.0414 0.0809239 0 -3 2.7 -0.0758601 31.2909 0.35288 2.84217e-14 -1.9 1.6 -6.06224e-05 2.25684e-05 -3.00699e-05 -4.26326e-14 -8.3 1.9 0.425812 -5.47858 0.0374618 1.42109e-14 -4.5 0 54.8432 -0.0182582 0.0208747 -1.13687e-13 -3.4 -8.52651e-14 36.7381 -9.4668e-05 0.020871 0.25 -2.2 0.4 -6.06224e-05 2.25684e-05 -3.00699e-05 -1.42109e-14 -8.3 1 0.535961 2.74871 -0.0512063 2.84217e-14 -4.65 0 79.76 -0.00208189 -0.00625031 0 -3.3 0 63.1818 -0.00283598 -0.000510352 0.5 -2.15 -0.8 -6.06224e-05 2.25684e-05 -3.00699e-05 -1.42109e-14 -7.75 -0.2 0.299475 2.84911 -0.0412029 0 -3.8 -5.68434e-14 52.9879 -0.000797281 -0.00223597 0 -3.4 5.68434e-14 36.5853 0.000847076 -0.00596727 0.75 -1.75 -1.85 -6.06224e-05 2.25684e-05 -3.00699e-05 0 -7.15 -1 0.0063283 0.297448 -0.0170478 -1.42109e-14 -3 1.13687e-13 67.6951 -0.000587339 -0.0432761 0 -2.35 0 49.8378 -0.0396647 -0.0245732 8 0 0 19.0915 -41.4691 20.2373 0 -45 -1 -0.420465 35.4698 -5.98743 1.13687e-13 -41 -2 -8.85996 14.772 17.6586 0 -7.5 12.5 4.39531e-06 8.74789e-06 -9.94659e-06 0 0 4 -1.87251 -5.60864 0.677333 -8 0 0 0.809326 -53.3885 -12.1567 -5.68434e-14 -45 -1 -18.311 75.8289 28.9351 0 -41 -2 -9.6105 21.0098 -9.63769 -5.68434e-14 -7.5 12.5 -7.44098e-07 -32.8482 -4.08135e-05 0 0 4 -12.208 26.9245 53.2434 
-371.152 74.4997 786.738 -6.4482 8.69361 -171.389 -5.68434e-14 8 -1.13687e-13 5.41103 10.4515 -12.6359 -5.68434e-14 8 0 1.9555 7.04827 -3.21175 0 8 0 0.925313 3.54758 -1.57453 0 8 0 0.922728 3.53453 -1.57022 2.84217e-14 17 0 5.31161 0.967846 -9.10103 0 10.8 0 12.5816 0.899611 -21.4431 5 17 0 3.78078 -0.0152098 -5.31294 6.45 0 0 -1.07116 -0.304811 -1.0794 6.45 5.68434e-14 0 70.4078 -37.3317 19.5063 -5.68434e-14 -32.4 -2 -11.4044 -41.0152 0.03371 2.84217e-14 -25.65 2 -16.483 13.5436 -25.9912 -0.5 -1.5 2.65 -5.48338 -20.3413 10.0915 -5.68434e-14 -3.8 3.7 -0.0204019 12.4591 0.0173391 0 -3 2.7 -0.215119 22.6078 -0.116028 0 -1.9 1.6 -8.79558e-07 8.18431e-06 1.74746e-05 0 -8.3 1.9 -42.2064 24.0052 10.3481 0 -4.5 1.13687e-13 -5.5276 0.000259256 -0.00921499 0 -3.4 -1.13687e-13 -4.8871 0.00110832 -0.00900111 -0.25 -2.2 0.4 -8.79558e-07 8.18431e-06 1.74746e-05 0 -8.3 1 -72.6581 18.4137 18.6183 0 -4.65 0 -1.97169 3.98504e-05 -4.53083e-05 1.13687e-13 -3.3 0 -2.48107e-05 1.45071e-05 -6.30009e-05 -0.5 -2.15 -0.8 -8.79558e-07 8.18431e-06 1.74746e-05 -5.68434e-14 -7.75 -0.2 -72.6227 15.7723 17.8097 0 -3.8 1.13687e-13 -83.7433 -0.0144424 -0.0217411 0 -3.4 0 -70.34 0.0404466 0.00153339 -0.75 -1.75 -1.85 -8.79558e-07 8.18431e-06 1.74746e-05 5.68434e-14 -7.15 -1 -87.8516 3.74784 17.3121 5.68434e-14 -3 1.13687e-13 -16.4415 -0.027029 -0.0850792 0 -2.35 0 -13.2976 -0.00525763 -0.0614192 -5 17 0 16.499 -3.2921 -5.03208 -6.45 -2.84217e-14 1.13687e-13 -1.9662 0.942239 -1.3727 -6.45 0 -1.13687e-13 -56.0263 0.955065 -35.9234 5.68434e-14 -32.4 -2 36.9053 -77.5908 59.7398 -2.84217e-14 -25.65 2 -9.24723 -8.19163 34.1758 0.5 -1.5 2.65 39.1213 43.1545 -113.927 0 -3.8 3.7 0.314576 30.4701 0.079693 0 -3 2.7 -0.0758601 31.2909 0.35288 2.84217e-14 -1.9 1.6 -6.06224e-05 2.25684e-05 -3.00699e-05 -1.42109e-14 -8.3 1.9 0.413085 -5.34252 0.0374534 0 -4.5 2.84217e-14 55.6795 -0.0263546 0.0168648 -1.13687e-13 -3.4 0 37.3368 -0.0047827 0.0216395 0.25 -2.2 0.4 -6.06224e-05 2.25684e-05 -3.00699e-05 -1.42109e-14 -8.3 1 0.527049 2.67908 -0.0512034 4.26326e-14 -4.65 0 79.7673 -0.00208189 -0.00625031 0 -3.3 0 63.1937 -0.00283598 -0.00191414 0.5 -2.15 -0.8 -6.06224e-05 2.25684e-05 -3.00699e-05 0 -7.75 -0.2 0.284479 2.71303 -0.0362976 0 -3.8 -5.68434e-14 52.7539 0.00256756 -0.00171892 0 -3.4 0 36.4151 0.000847076 -0.0051359 0.75 -1.75 -1.85 -6.06224e-05 2.25684e-05 -3.00699e-05 -1.42109e-14 -7.15 -1 0.0102363 0.254153 -0.0170477 0 -3 5.68434e-14 66.0064 0.0196431 -0.032817 0 -2.35 -5.68434e-14 47.8726 -0.0136798 -0.0346914 8 0 0 18.9423 -41.3925 20.037 0 -45 -1 -0.415066 35.3917 -6.01586 0 -41 -2 -8.98286 14.8763 17.6694 0 -7.5 12.5 4.39531e-06 8.74789e-06 -9.94659e-06 0 0 4 -1.83272 -5.74925 0.925987 -8 2.84217e-14 0 0.870265 -53.3751 -12.0621 5.68434e-14 -45 -1 -18.4359 75.8302 29.115 0 -41 -2 -9.49513 21.0313 -9.8953 0 -7.5 12.5 -7.53482e-07 -32.8592 -4.08186e-05 0 0 4 -12.1157 26.9434 53.0531 
